<?xml version="1.0" encoding="UTF-8" standalone="no"?>
<!-- Created with Inkscape (http://www.inkscape.org/) -->

<svg
   xmlns:dc="http://purl.org/dc/elements/1.1/"
   xmlns:cc="http://creativecommons.org/ns#"
   xmlns:rdf="http://www.w3.org/1999/02/22-rdf-syntax-ns#"
   xmlns:svg="http://www.w3.org/2000/svg"
   xmlns="http://www.w3.org/2000/svg"
   xmlns:sodipodi="http://sodipodi.sourceforge.net/DTD/sodipodi-0.dtd"
   xmlns:inkscape="http://www.inkscape.org/namespaces/inkscape"
   id="svg2"
   version="1.1"
   inkscape:version="0.91 r13725"
   xml:space="preserve"
   width="960"
   height="180"
   viewBox="0 0 960.00003 180"
   sodipodi:docname="logotype_variant.svg"
   inkscape:export-filename="/ws/newinit/doc/logotype_variant.png"
   inkscape:export-xdpi="56.25"
   inkscape:export-ydpi="56.25"><metadata
     id="metadata8"><rdf:RDF><cc:Work
         rdf:about=""><dc:format>image/svg+xml</dc:format><dc:type
           rdf:resource="http://purl.org/dc/dcmitype/StillImage" /><dc:title /></cc:Work></rdf:RDF></metadata><defs
     id="defs6"><clipPath
       clipPathUnits="userSpaceOnUse"
       id="clipPath16"><path
         d="m 0,128 854.793,0 0,-128 L 0,0 0,128 Z"
         id="path18"
         inkscape:connector-curvature="0" /></clipPath></defs><sodipodi:namedview
     pagecolor="#ffffff"
     bordercolor="#666666"
     borderopacity="1"
     objecttolerance="10"
     gridtolerance="10"
     guidetolerance="10"
     inkscape:pageopacity="0"
     inkscape:pageshadow="2"
     inkscape:window-width="1920"
     inkscape:window-height="991"
     id="namedview4"
     showgrid="false"
     inkscape:zoom="1"
     inkscape:cx="-222.65412"
     inkscape:cy="445.1034"
     inkscape:window-x="0"
     inkscape:window-y="27"
     inkscape:window-maximized="1"
     inkscape:current-layer="g4179" /><g
     id="g10"
     inkscape:groupmode="layer"
     inkscape:label="logotype"
     transform="matrix(1.25,0,0,-1.25,0,180)"><flowRoot
       xml:space="preserve"
       id="flowRoot4196"
       style="font-style:normal;font-weight:normal;font-size:25px;line-height:125%;font-family:Sans;letter-spacing:0px;word-spacing:0px;fill:#000000;fill-opacity:1;stroke:none;stroke-width:1px;stroke-linecap:butt;stroke-linejoin:miter;stroke-opacity:1"
       inkscape:export-xdpi="62.67791"
       inkscape:export-ydpi="62.67791"
       transform="matrix(0.8,0,0,-0.8,-20.226593,323.81186)"><flowRegion
         id="flowRegion4198"><rect
           id="rect4200"
           width="1049.6353"
           height="228.83043"
           x="223.85587"
           y="208.50211" /></flowRegion><flowPara
         id="flowPara4202"
         style="font-style:normal;font-variant:normal;font-weight:500;font-stretch:normal;font-size:160px;font-family:StratumNo1;-inkscape-font-specification:'StratumNo1 Medium'"><flowSpan
           style="font-style:normal;font-variant:normal;font-weight:500;font-stretch:normal;font-size:160px;font-family:StratumNo1;-inkscape-font-specification:'StratumNo1 Medium';fill:#f78044;fill-opacity:1"
           id="flowSpan4204">S</flowSpan><flowSpan
           style="font-style:normal;font-variant:normal;font-weight:500;font-stretch:normal;font-size:160px;font-family:StratumNo1;-inkscape-font-specification:'StratumNo1 Medium';fill:#f05a49;fill-opacity:1"
           id="flowSpan4220">y</flowSpan><flowSpan
           style="font-style:normal;font-variant:normal;font-weight:500;font-stretch:normal;font-size:160px;font-family:StratumNo1;-inkscape-font-specification:'StratumNo1 Medium';fill:#1e8bc3;fill-opacity:1"
           id="flowSpan4260">s</flowSpan><flowSpan
           style="font-style:normal;font-variant:normal;font-weight:500;font-stretch:normal;font-size:160px;font-family:StratumNo1;-inkscape-font-specification:'StratumNo1 Medium';fill:#ff9f00;fill-opacity:1"
           id="flowSpan4264">t</flowSpan><flowSpan
           id="flowSpan4270"
           style="font-style:normal;font-variant:normal;font-weight:500;font-stretch:normal;font-size:160px;font-family:StratumNo1;-inkscape-font-specification:'StratumNo1 Medium';fill:#f78044;fill-opacity:1">e</flowSpan><flowSpan
           style="font-style:normal;font-variant:normal;font-weight:500;font-stretch:normal;font-size:160px;font-family:StratumNo1;-inkscape-font-specification:'StratumNo1 Medium';fill:#f05a49;fill-opacity:1"
           id="flowSpan4230">m</flowSpan><flowSpan
           style="font-style:normal;font-variant:normal;font-weight:500;font-stretch:normal;font-size:160px;font-family:StratumNo1;-inkscape-font-specification:'StratumNo1 Medium';fill:#1e8bc3;fill-opacity:1"
           id="flowSpan4262"> XVI</flowSpan></flowPara></flowRoot><flowRoot
       xml:space="preserve"
       id="flowRoot4236"
       style="fill:black;stroke:none;stroke-opacity:1;stroke-width:1px;stroke-linejoin:miter;stroke-linecap:butt;fill-opacity:1;font-family:Sans;font-style:normal;font-weight:normal;font-size:25px;line-height:125%;letter-spacing:0px;word-spacing:0px"><flowRegion
         id="flowRegion4238"><rect
           id="rect4240"
           width="1557.0491"
           height="502.04581"
           x="-445.47726"
           y="-136.78384" /></flowRegion><flowPara
         id="flowPara4242" /></flowRoot><g
       id="g4179"><g
         id="g4186"
         inkscape:export-xdpi="56.25"
         inkscape:export-ydpi="56.25"><g
           id="g5199"
           transform="matrix(-0.10858339,-0.56506928,0.56506928,-0.10858339,50.854374,114.9432)"
           inkscape:export-xdpi="62.67791"
           inkscape:export-ydpi="62.67791"
           style="fill:#f5433b;fill-opacity:1"><g
             transform="translate(-1.3349245,0.204632)"
             id="g4937"
             inkscape:export-xdpi="51.923077"
             inkscape:export-ydpi="51.923077"
             style="fill:#f5433b;fill-opacity:1"><path
               d="m 77.366845,131.32135 c -6.742552,5.77441 -7.43122,14.47345 -7.43122,14.47345 -0.256397,1.08048 -0.400467,8.14576 -0.400467,8.14576 0.118174,8.08246 -3.864061,12.13952 -3.864061,12.13952 -4.584351,5.84066 -11.885906,8.8143 -11.885906,8.8143 0.317195,-0.0807 3.633642,-3.54697 3.636535,-3.54986 7.785579,-8.34459 0.619496,-18.10403 0.619496,-18.10403 -1.777885,-2.6941 -4.155013,-8.30428 -4.155013,-8.30428 -3.051493,-7.36203 0.677096,-13.09031 1.241844,-13.87983 7.356303,1.22461 14.856675,1.30816 22.238894,0.2651"
               id="path214"
               style="fill:#f5433b;fill-opacity:1;fill-rule:nonzero;stroke:none"
               inkscape:connector-curvature="0" /><path
               d="m 52.6993,-3.730714 c 6.74256,-5.77441 7.43122,-14.47345 7.43122,-14.47345 0.2564,-1.08048 0.40047,-8.14576 0.40047,-8.14576 -0.11817,-8.08246 3.86406,-12.13952 3.86406,-12.13952 4.584353,-5.84066 11.885908,-8.8143 11.885908,-8.8143 -0.317195,0.0807 -3.633642,3.54697 -3.636535,3.54986 -7.785583,8.34459 -0.619496,18.10403 -0.619496,18.10403 1.777885,2.6941 4.155013,8.30428 4.155013,8.30428 3.051493,7.36203 -0.677096,13.09031 -1.241844,13.87983 -7.356306,-1.22461 -14.856676,-1.30816 -22.238896,-0.2651"
               id="path214-5"
               style="fill:#f5433b;fill-opacity:1;fill-rule:nonzero;stroke:none"
               inkscape:connector-curvature="0" /></g><g
             id="g5157"
             transform="matrix(0.92387953,-0.38268343,0.38268343,0.92387953,-20.797988,29.947842)"
             inkscape:export-xdpi="51.923077"
             inkscape:export-ydpi="51.923077"
             style="fill:#f5433b;fill-opacity:1"><path
               inkscape:connector-curvature="0"
               style="fill:#f5433b;fill-opacity:1;fill-rule:nonzero;stroke:none"
               id="path5159"
               d="m 77.366845,131.32135 c -6.742552,5.77441 -7.43122,14.47345 -7.43122,14.47345 -0.256397,1.08048 -0.400467,8.14576 -0.400467,8.14576 0.118174,8.08246 -3.864061,12.13952 -3.864061,12.13952 -4.584351,5.84066 -11.885906,8.8143 -11.885906,8.8143 0.317195,-0.0807 3.633642,-3.54697 3.636535,-3.54986 7.785579,-8.34459 0.619496,-18.10403 0.619496,-18.10403 -1.777885,-2.6941 -4.155013,-8.30428 -4.155013,-8.30428 -3.051493,-7.36203 0.677096,-13.09031 1.241844,-13.87983 7.356303,1.22461 14.856675,1.30816 22.238894,0.2651" /><path
               inkscape:connector-curvature="0"
               style="fill:#f5433b;fill-opacity:1;fill-rule:nonzero;stroke:none"
               id="path5161"
               d="m 52.6993,-3.730714 c 6.74256,-5.77441 7.43122,-14.47345 7.43122,-14.47345 0.2564,-1.08048 0.40047,-8.14576 0.40047,-8.14576 -0.11817,-8.08246 3.86406,-12.13952 3.86406,-12.13952 4.584353,-5.84066 11.885908,-8.8143 11.885908,-8.8143 -0.317195,0.0807 -3.633642,3.54697 -3.636535,3.54986 -7.785583,8.34459 -0.619496,18.10403 -0.619496,18.10403 1.777885,2.6941 4.155013,8.30428 4.155013,8.30428 3.051493,7.36203 -0.677096,13.09031 -1.241844,13.87983 -7.356306,-1.22461 -14.856676,-1.30816 -22.238896,-0.2651" /></g><g
             transform="matrix(0.70710678,-0.70710678,0.70710678,0.70710678,-27.39728,64.875176)"
             id="g5163"
             inkscape:export-xdpi="51.923077"
             inkscape:export-ydpi="51.923077"
             style="fill:#f5433b;fill-opacity:1"><path
               d="m 77.366845,131.32135 c -6.742552,5.77441 -7.43122,14.47345 -7.43122,14.47345 -0.256397,1.08048 -0.400467,8.14576 -0.400467,8.14576 0.118174,8.08246 -3.864061,12.13952 -3.864061,12.13952 -4.584351,5.84066 -11.885906,8.8143 -11.885906,8.8143 0.317195,-0.0807 3.633642,-3.54697 3.636535,-3.54986 7.785579,-8.34459 0.619496,-18.10403 0.619496,-18.10403 -1.777885,-2.6941 -4.155013,-8.30428 -4.155013,-8.30428 -3.051493,-7.36203 0.677096,-13.09031 1.241844,-13.87983 7.356303,1.22461 14.856675,1.30816 22.238894,0.2651"
               id="path5165"
               style="fill:#f5433b;fill-opacity:1;fill-rule:nonzero;stroke:none"
               inkscape:connector-curvature="0" /><path
               d="m 52.6993,-3.730714 c 6.74256,-5.77441 7.43122,-14.47345 7.43122,-14.47345 0.2564,-1.08048 0.40047,-8.14576 0.40047,-8.14576 -0.11817,-8.08246 3.86406,-12.13952 3.86406,-12.13952 4.584353,-5.84066 11.885908,-8.8143 11.885908,-8.8143 -0.317195,0.0807 -3.633642,3.54697 -3.636535,3.54986 -7.785583,8.34459 -0.619496,18.10403 -0.619496,18.10403 1.777885,2.6941 4.155013,8.30428 4.155013,8.30428 3.051493,7.36203 -0.677096,13.09031 -1.241844,13.87983 -7.356306,-1.22461 -14.856676,-1.30816 -22.238896,-0.2651"
               id="path5167"
               style="fill:#f5433b;fill-opacity:1;fill-rule:nonzero;stroke:none"
               inkscape:connector-curvature="0" /></g><g
             id="g5169"
             transform="matrix(0.38268343,-0.92387953,0.92387953,0.38268343,-20.128119,99.669265)"
             style="fill:#f5433b;fill-opacity:1"><path
               inkscape:connector-curvature="0"
               style="fill:#f5433b;fill-opacity:1;fill-rule:nonzero;stroke:none"
               id="path5171"
               d="m 77.366845,131.32135 c -6.742552,5.77441 -7.43122,14.47345 -7.43122,14.47345 -0.256397,1.08048 -0.400467,8.14576 -0.400467,8.14576 0.118174,8.08246 -3.864061,12.13952 -3.864061,12.13952 -4.584351,5.84066 -11.885906,8.8143 -11.885906,8.8143 0.317195,-0.0807 3.633642,-3.54697 3.636535,-3.54986 7.785579,-8.34459 0.619496,-18.10403 0.619496,-18.10403 -1.777885,-2.6941 -4.155013,-8.30428 -4.155013,-8.30428 -3.051493,-7.36203 0.677096,-13.09031 1.241844,-13.87983 7.356303,1.22461 14.856675,1.30816 22.238894,0.2651"
               inkscape:export-xdpi="51.923077"
               inkscape:export-ydpi="51.923077" /><path
               inkscape:connector-curvature="0"
               style="fill:#f5433b;fill-opacity:1;fill-rule:nonzero;stroke:none"
               id="path5173"
               d="m 52.6993,-3.730714 c 6.74256,-5.77441 7.43122,-14.47345 7.43122,-14.47345 0.2564,-1.08048 0.40047,-8.14576 0.40047,-8.14576 -0.11817,-8.08246 3.86406,-12.13952 3.86406,-12.13952 4.584353,-5.84066 11.885908,-8.8143 11.885908,-8.8143 -0.317195,0.0807 -3.633642,3.54697 -3.636535,3.54986 -7.785583,8.34459 -0.619496,18.10403 -0.619496,18.10403 1.777885,2.6941 4.155013,8.30428 4.155013,8.30428 3.051493,7.36203 -0.677096,13.09031 -1.241844,13.87983 -7.356306,-1.22461 -14.856676,-1.30816 -22.238896,-0.2651"
               inkscape:export-xdpi="51.923077"
               inkscape:export-ydpi="51.923077" /></g><g
             transform="matrix(0,-1,1,0,-0.09716829,129.03302)"
             id="g5175"
             inkscape:export-xdpi="51.923077"
             inkscape:export-ydpi="51.923077"
             style="fill:#f5433b;fill-opacity:1"><path
               d="m 77.366845,131.32135 c -6.742552,5.77441 -7.43122,14.47345 -7.43122,14.47345 -0.256397,1.08048 -0.400467,8.14576 -0.400467,8.14576 0.118174,8.08246 -3.864061,12.13952 -3.864061,12.13952 -4.584351,5.84066 -11.885906,8.8143 -11.885906,8.8143 0.317195,-0.0807 3.633642,-3.54697 3.636535,-3.54986 7.785579,-8.34459 0.619496,-18.10403 0.619496,-18.10403 -1.777885,-2.6941 -4.155013,-8.30428 -4.155013,-8.30428 -3.051493,-7.36203 0.677096,-13.09031 1.241844,-13.87983 7.356303,1.22461 14.856675,1.30816 22.238894,0.2651"
               id="path5177"
               style="fill:#f5433b;fill-opacity:1;fill-rule:nonzero;stroke:none"
               inkscape:connector-curvature="0" /><path
               d="m 52.6993,-3.730714 c 6.74256,-5.77441 7.43122,-14.47345 7.43122,-14.47345 0.2564,-1.08048 0.40047,-8.14576 0.40047,-8.14576 -0.11817,-8.08246 3.86406,-12.13952 3.86406,-12.13952 4.584353,-5.84066 11.885908,-8.8143 11.885908,-8.8143 -0.317195,0.0807 -3.633642,3.54697 -3.636535,3.54986 -7.785583,8.34459 -0.619496,18.10403 -0.619496,18.10403 1.777885,2.6941 4.155013,8.30428 4.155013,8.30428 3.051493,7.36203 -0.677096,13.09031 -1.241844,13.87983 -7.356306,-1.22461 -14.856676,-1.30816 -22.238896,-0.2651"
               id="path5179"
               style="fill:#f5433b;fill-opacity:1;fill-rule:nonzero;stroke:none"
               inkscape:connector-curvature="0" /></g><g
             id="g5181"
             transform="matrix(-0.38268343,-0.92387953,0.92387953,-0.38268343,29.646041,148.49608)"
             inkscape:export-xdpi="51.923077"
             inkscape:export-ydpi="51.923077"
             style="fill:#f5433b;fill-opacity:1"><path
               inkscape:connector-curvature="0"
               style="fill:#f5433b;fill-opacity:1;fill-rule:nonzero;stroke:none"
               id="path5183"
               d="m 77.366845,131.32135 c -6.742552,5.77441 -7.43122,14.47345 -7.43122,14.47345 -0.256397,1.08048 -0.400467,8.14576 -0.400467,8.14576 0.118174,8.08246 -3.864061,12.13952 -3.864061,12.13952 -4.584351,5.84066 -11.885906,8.8143 -11.885906,8.8143 0.317195,-0.0807 3.633642,-3.54697 3.636535,-3.54986 7.785579,-8.34459 0.619496,-18.10403 0.619496,-18.10403 -1.777885,-2.6941 -4.155013,-8.30428 -4.155013,-8.30428 -3.051493,-7.36203 0.677096,-13.09031 1.241844,-13.87983 7.356303,1.22461 14.856675,1.30816 22.238894,0.2651" /><path
               inkscape:connector-curvature="0"
               style="fill:#f5433b;fill-opacity:1;fill-rule:nonzero;stroke:none"
               id="path5185"
               d="m 52.6993,-3.730714 c 6.74256,-5.77441 7.43122,-14.47345 7.43122,-14.47345 0.2564,-1.08048 0.40047,-8.14576 0.40047,-8.14576 -0.11817,-8.08246 3.86406,-12.13952 3.86406,-12.13952 4.584353,-5.84066 11.885908,-8.8143 11.885908,-8.8143 -0.317195,0.0807 -3.633642,3.54697 -3.636535,3.54986 -7.785583,8.34459 -0.619496,18.10403 -0.619496,18.10403 1.777885,2.6941 4.155013,8.30428 4.155013,8.30428 3.051493,7.36203 -0.677096,13.09031 -1.241844,13.87983 -7.356306,-1.22461 -14.856676,-1.30816 -22.238896,-0.2651" /></g><g
             transform="matrix(-0.70710678,-0.70710678,0.70710678,-0.70710678,64.573375,155.09537)"
             id="g5187"
             inkscape:export-xdpi="51.923077"
             inkscape:export-ydpi="51.923077"
             style="fill:#f5433b;fill-opacity:1"><path
               d="m 77.366845,131.32135 c -6.742552,5.77441 -7.43122,14.47345 -7.43122,14.47345 -0.256397,1.08048 -0.400467,8.14576 -0.400467,8.14576 0.118174,8.08246 -3.864061,12.13952 -3.864061,12.13952 -4.584351,5.84066 -11.885906,8.8143 -11.885906,8.8143 0.317195,-0.0807 3.633642,-3.54697 3.636535,-3.54986 7.785579,-8.34459 0.619496,-18.10403 0.619496,-18.10403 -1.777885,-2.6941 -4.155013,-8.30428 -4.155013,-8.30428 -3.051493,-7.36203 0.677096,-13.09031 1.241844,-13.87983 7.356303,1.22461 14.856675,1.30816 22.238894,0.2651"
               id="path5189"
               style="fill:#f5433b;fill-opacity:1;fill-rule:nonzero;stroke:none"
               inkscape:connector-curvature="0" /><path
               d="m 52.6993,-3.730714 c 6.74256,-5.77441 7.43122,-14.47345 7.43122,-14.47345 0.2564,-1.08048 0.40047,-8.14576 0.40047,-8.14576 -0.11817,-8.08246 3.86406,-12.13952 3.86406,-12.13952 4.584353,-5.84066 11.885908,-8.8143 11.885908,-8.8143 -0.317195,0.0807 -3.633642,3.54697 -3.636535,3.54986 -7.785583,8.34459 -0.619496,18.10403 -0.619496,18.10403 1.777885,2.6941 4.155013,8.30428 4.155013,8.30428 3.051493,7.36203 -0.677096,13.09031 -1.241844,13.87983 -7.356306,-1.22461 -14.856676,-1.30816 -22.238896,-0.2651"
               id="path5191"
               style="fill:#f5433b;fill-opacity:1;fill-rule:nonzero;stroke:none"
               inkscape:connector-curvature="0" /></g><g
             id="g5193"
             transform="matrix(-0.92387953,-0.38268343,0.38268343,-0.92387953,99.367464,147.82621)"
             inkscape:export-xdpi="51.923077"
             inkscape:export-ydpi="51.923077"
             style="fill:#f5433b;fill-opacity:1"><path
               inkscape:connector-curvature="0"
               style="fill:#f5433b;fill-opacity:1;fill-rule:nonzero;stroke:none"
               id="path5195"
               d="m 77.366845,131.32135 c -6.742552,5.77441 -7.43122,14.47345 -7.43122,14.47345 -0.256397,1.08048 -0.400467,8.14576 -0.400467,8.14576 0.118174,8.08246 -3.864061,12.13952 -3.864061,12.13952 -4.584351,5.84066 -11.885906,8.8143 -11.885906,8.8143 0.317195,-0.0807 3.633642,-3.54697 3.636535,-3.54986 7.785579,-8.34459 0.619496,-18.10403 0.619496,-18.10403 -1.777885,-2.6941 -4.155013,-8.30428 -4.155013,-8.30428 -3.051493,-7.36203 0.677096,-13.09031 1.241844,-13.87983 7.356303,1.22461 14.856675,1.30816 22.238894,0.2651" /><path
               inkscape:connector-curvature="0"
               style="fill:#f5433b;fill-opacity:1;fill-rule:nonzero;stroke:none"
               id="path5197"
               d="m 52.6993,-3.730714 c 6.74256,-5.77441 7.43122,-14.47345 7.43122,-14.47345 0.2564,-1.08048 0.40047,-8.14576 0.40047,-8.14576 -0.11817,-8.08246 3.86406,-12.13952 3.86406,-12.13952 4.584353,-5.84066 11.885908,-8.8143 11.885908,-8.8143 -0.317195,0.0807 -3.633642,3.54697 -3.636535,3.54986 -7.785583,8.34459 -0.619496,18.10403 -0.619496,18.10403 1.777885,2.6941 4.155013,8.30428 4.155013,8.30428 3.051493,7.36203 -0.677096,13.09031 -1.241844,13.87983 -7.356306,-1.22461 -14.856676,-1.30816 -22.238896,-0.2651" /></g></g><g
           id="g4180"><path
             d="M 80.10222,-32 A 40,40 0 0 1 51.817947,-43.715729 40,40 0 0 1 40.102219,-72.000002 l 40,2e-6 z"
             sodipodi:end="3.1415927"
             sodipodi:start="1.5707963"
             sodipodi:ry="40"
             sodipodi:rx="40"
             sodipodi:cy="-72"
             sodipodi:cx="80.102219"
             sodipodi:type="arc"
             transform="scale(1,-1)"
             id="path4193"
             style="opacity:1;fill:#34a853;fill-opacity:1;fill-rule:nonzero;stroke:none;stroke-width:1;stroke-miterlimit:4;stroke-dasharray:none;stroke-opacity:1" /><path
             transform="matrix(0,-1,-1,0,0,0)"
             d="M -71.999999,-40.102219 A 40,40 0 0 1 -100.28427,-51.817948 40,40 0 0 1 -112,-80.10222 l 40,10e-7 z"
             sodipodi:end="3.1415927"
             sodipodi:start="1.5707963"
             sodipodi:ry="40"
             sodipodi:rx="40"
             sodipodi:cy="-80.102219"
             sodipodi:cx="-72"
             sodipodi:type="arc"
             id="path4193-0"
             style="opacity:1;fill:#e44e7b;fill-opacity:1;fill-rule:nonzero;stroke:none;stroke-width:1;stroke-miterlimit:4;stroke-dasharray:none;stroke-opacity:1" /><path
             transform="scale(-1,1)"
             d="M -80.102401,112 A 40,40 0 0 1 -108.38667,100.28427 40,40 0 0 1 -120.1024,71.999998 L -80.102402,72 Z"
             sodipodi:end="3.1415927"
             sodipodi:start="1.5707963"
             sodipodi:ry="40"
             sodipodi:rx="40"
             sodipodi:cy="72"
             sodipodi:cx="-80.102402"
             sodipodi:type="arc"
             id="path4193-0-2"
             style="opacity:1;fill:#4285f4;fill-opacity:1;fill-rule:nonzero;stroke:none;stroke-width:1;stroke-miterlimit:4;stroke-dasharray:none;stroke-opacity:1" /><path
             transform="scale(-1,-1)"
             d="M -108.38667,-43.715729 A 40,40 0 0 1 -120.1024,-72.000002 L -80.102402,-72 Z"
             sodipodi:end="3.1415927"
             sodipodi:start="2.3561945"
             sodipodi:ry="40"
             sodipodi:rx="40"
             sodipodi:cy="-72"
             sodipodi:cx="-80.102402"
             sodipodi:type="arc"
             id="path4193-0-2-2"
             style="opacity:1;fill:#ff9f00;fill-opacity:1;fill-rule:nonzero;stroke:none;stroke-width:1;stroke-miterlimit:4;stroke-dasharray:none;stroke-opacity:1" /></g></g><g
         inkscape:export-ydpi="56.25"
         inkscape:export-xdpi="56.25"
         id="g4182"><g
           style="fill:#f5433b;fill-opacity:1"
           inkscape:export-ydpi="62.67791"
           inkscape:export-xdpi="62.67791"
           transform="matrix(-0.10858339,-0.56506928,0.56506928,-0.10858339,50.854374,114.9432)"
           id="g4184"><g
             style="fill:#f5433b;fill-opacity:1"
             inkscape:export-ydpi="51.923077"
             inkscape:export-xdpi="51.923077"
             id="g4187"
             transform="translate(-1.3349245,0.204632)"><path
               inkscape:connector-curvature="0"
               style="fill:#f5433b;fill-opacity:1;fill-rule:nonzero;stroke:none"
               id="path4189"
               d="m 77.366845,131.32135 c -6.742552,5.77441 -7.43122,14.47345 -7.43122,14.47345 -0.256397,1.08048 -0.400467,8.14576 -0.400467,8.14576 0.118174,8.08246 -3.864061,12.13952 -3.864061,12.13952 -4.584351,5.84066 -11.885906,8.8143 -11.885906,8.8143 0.317195,-0.0807 3.633642,-3.54697 3.636535,-3.54986 7.785579,-8.34459 0.619496,-18.10403 0.619496,-18.10403 -1.777885,-2.6941 -4.155013,-8.30428 -4.155013,-8.30428 -3.051493,-7.36203 0.677096,-13.09031 1.241844,-13.87983 7.356303,1.22461 14.856675,1.30816 22.238894,0.2651" /><path
               inkscape:connector-curvature="0"
               style="fill:#f5433b;fill-opacity:1;fill-rule:nonzero;stroke:none"
               id="path4191"
               d="m 52.6993,-3.730714 c 6.74256,-5.77441 7.43122,-14.47345 7.43122,-14.47345 0.2564,-1.08048 0.40047,-8.14576 0.40047,-8.14576 -0.11817,-8.08246 3.86406,-12.13952 3.86406,-12.13952 4.584353,-5.84066 11.885908,-8.8143 11.885908,-8.8143 -0.317195,0.0807 -3.633642,3.54697 -3.636535,3.54986 -7.785583,8.34459 -0.619496,18.10403 -0.619496,18.10403 1.777885,2.6941 4.155013,8.30428 4.155013,8.30428 3.051493,7.36203 -0.677096,13.09031 -1.241844,13.87983 -7.356306,-1.22461 -14.856676,-1.30816 -22.238896,-0.2651" /></g><g
             style="fill:#f5433b;fill-opacity:1"
             inkscape:export-ydpi="51.923077"
             inkscape:export-xdpi="51.923077"
             transform="matrix(0.92387953,-0.38268343,0.38268343,0.92387953,-20.797988,29.947842)"
             id="g4193"><path
               d="m 77.366845,131.32135 c -6.742552,5.77441 -7.43122,14.47345 -7.43122,14.47345 -0.256397,1.08048 -0.400467,8.14576 -0.400467,8.14576 0.118174,8.08246 -3.864061,12.13952 -3.864061,12.13952 -4.584351,5.84066 -11.885906,8.8143 -11.885906,8.8143 0.317195,-0.0807 3.633642,-3.54697 3.636535,-3.54986 7.785579,-8.34459 0.619496,-18.10403 0.619496,-18.10403 -1.777885,-2.6941 -4.155013,-8.30428 -4.155013,-8.30428 -3.051493,-7.36203 0.677096,-13.09031 1.241844,-13.87983 7.356303,1.22461 14.856675,1.30816 22.238894,0.2651"
               id="path4195"
               style="fill:#f5433b;fill-opacity:1;fill-rule:nonzero;stroke:none"
               inkscape:connector-curvature="0" /><path
               d="m 52.6993,-3.730714 c 6.74256,-5.77441 7.43122,-14.47345 7.43122,-14.47345 0.2564,-1.08048 0.40047,-8.14576 0.40047,-8.14576 -0.11817,-8.08246 3.86406,-12.13952 3.86406,-12.13952 4.584353,-5.84066 11.885908,-8.8143 11.885908,-8.8143 -0.317195,0.0807 -3.633642,3.54697 -3.636535,3.54986 -7.785583,8.34459 -0.619496,18.10403 -0.619496,18.10403 1.777885,2.6941 4.155013,8.30428 4.155013,8.30428 3.051493,7.36203 -0.677096,13.09031 -1.241844,13.87983 -7.356306,-1.22461 -14.856676,-1.30816 -22.238896,-0.2651"
               id="path4197"
               style="fill:#f5433b;fill-opacity:1;fill-rule:nonzero;stroke:none"
               inkscape:connector-curvature="0" /></g><g
             style="fill:#f5433b;fill-opacity:1"
             inkscape:export-ydpi="51.923077"
             inkscape:export-xdpi="51.923077"
             id="g4199"
             transform="matrix(0.70710678,-0.70710678,0.70710678,0.70710678,-27.39728,64.875176)"><path
               inkscape:connector-curvature="0"
               style="fill:#f5433b;fill-opacity:1;fill-rule:nonzero;stroke:none"
               id="path4201"
               d="m 77.366845,131.32135 c -6.742552,5.77441 -7.43122,14.47345 -7.43122,14.47345 -0.256397,1.08048 -0.400467,8.14576 -0.400467,8.14576 0.118174,8.08246 -3.864061,12.13952 -3.864061,12.13952 -4.584351,5.84066 -11.885906,8.8143 -11.885906,8.8143 0.317195,-0.0807 3.633642,-3.54697 3.636535,-3.54986 7.785579,-8.34459 0.619496,-18.10403 0.619496,-18.10403 -1.777885,-2.6941 -4.155013,-8.30428 -4.155013,-8.30428 -3.051493,-7.36203 0.677096,-13.09031 1.241844,-13.87983 7.356303,1.22461 14.856675,1.30816 22.238894,0.2651" /><path
               inkscape:connector-curvature="0"
               style="fill:#f5433b;fill-opacity:1;fill-rule:nonzero;stroke:none"
               id="path4203"
               d="m 52.6993,-3.730714 c 6.74256,-5.77441 7.43122,-14.47345 7.43122,-14.47345 0.2564,-1.08048 0.40047,-8.14576 0.40047,-8.14576 -0.11817,-8.08246 3.86406,-12.13952 3.86406,-12.13952 4.584353,-5.84066 11.885908,-8.8143 11.885908,-8.8143 -0.317195,0.0807 -3.633642,3.54697 -3.636535,3.54986 -7.785583,8.34459 -0.619496,18.10403 -0.619496,18.10403 1.777885,2.6941 4.155013,8.30428 4.155013,8.30428 3.051493,7.36203 -0.677096,13.09031 -1.241844,13.87983 -7.356306,-1.22461 -14.856676,-1.30816 -22.238896,-0.2651" /></g><g
             style="fill:#f5433b;fill-opacity:1"
             transform="matrix(0.38268343,-0.92387953,0.92387953,0.38268343,-20.128119,99.669265)"
             id="g4205"><path
               inkscape:export-ydpi="51.923077"
               inkscape:export-xdpi="51.923077"
               d="m 77.366845,131.32135 c -6.742552,5.77441 -7.43122,14.47345 -7.43122,14.47345 -0.256397,1.08048 -0.400467,8.14576 -0.400467,8.14576 0.118174,8.08246 -3.864061,12.13952 -3.864061,12.13952 -4.584351,5.84066 -11.885906,8.8143 -11.885906,8.8143 0.317195,-0.0807 3.633642,-3.54697 3.636535,-3.54986 7.785579,-8.34459 0.619496,-18.10403 0.619496,-18.10403 -1.777885,-2.6941 -4.155013,-8.30428 -4.155013,-8.30428 -3.051493,-7.36203 0.677096,-13.09031 1.241844,-13.87983 7.356303,1.22461 14.856675,1.30816 22.238894,0.2651"
               id="path4207"
               style="fill:#f5433b;fill-opacity:1;fill-rule:nonzero;stroke:none"
               inkscape:connector-curvature="0" /><path
               inkscape:export-ydpi="51.923077"
               inkscape:export-xdpi="51.923077"
               d="m 52.6993,-3.730714 c 6.74256,-5.77441 7.43122,-14.47345 7.43122,-14.47345 0.2564,-1.08048 0.40047,-8.14576 0.40047,-8.14576 -0.11817,-8.08246 3.86406,-12.13952 3.86406,-12.13952 4.584353,-5.84066 11.885908,-8.8143 11.885908,-8.8143 -0.317195,0.0807 -3.633642,3.54697 -3.636535,3.54986 -7.785583,8.34459 -0.619496,18.10403 -0.619496,18.10403 1.777885,2.6941 4.155013,8.30428 4.155013,8.30428 3.051493,7.36203 -0.677096,13.09031 -1.241844,13.87983 -7.356306,-1.22461 -14.856676,-1.30816 -22.238896,-0.2651"
               id="path4209"
               style="fill:#f5433b;fill-opacity:1;fill-rule:nonzero;stroke:none"
               inkscape:connector-curvature="0" /></g><g
             style="fill:#f5433b;fill-opacity:1"
             inkscape:export-ydpi="51.923077"
             inkscape:export-xdpi="51.923077"
             id="g4211"
             transform="matrix(0,-1,1,0,-0.09716829,129.03302)"><path
               inkscape:connector-curvature="0"
               style="fill:#f5433b;fill-opacity:1;fill-rule:nonzero;stroke:none"
               id="path4213"
               d="m 77.366845,131.32135 c -6.742552,5.77441 -7.43122,14.47345 -7.43122,14.47345 -0.256397,1.08048 -0.400467,8.14576 -0.400467,8.14576 0.118174,8.08246 -3.864061,12.13952 -3.864061,12.13952 -4.584351,5.84066 -11.885906,8.8143 -11.885906,8.8143 0.317195,-0.0807 3.633642,-3.54697 3.636535,-3.54986 7.785579,-8.34459 0.619496,-18.10403 0.619496,-18.10403 -1.777885,-2.6941 -4.155013,-8.30428 -4.155013,-8.30428 -3.051493,-7.36203 0.677096,-13.09031 1.241844,-13.87983 7.356303,1.22461 14.856675,1.30816 22.238894,0.2651" /><path
               inkscape:connector-curvature="0"
               style="fill:#f5433b;fill-opacity:1;fill-rule:nonzero;stroke:none"
               id="path4215"
               d="m 52.6993,-3.730714 c 6.74256,-5.77441 7.43122,-14.47345 7.43122,-14.47345 0.2564,-1.08048 0.40047,-8.14576 0.40047,-8.14576 -0.11817,-8.08246 3.86406,-12.13952 3.86406,-12.13952 4.584353,-5.84066 11.885908,-8.8143 11.885908,-8.8143 -0.317195,0.0807 -3.633642,3.54697 -3.636535,3.54986 -7.785583,8.34459 -0.619496,18.10403 -0.619496,18.10403 1.777885,2.6941 4.155013,8.30428 4.155013,8.30428 3.051493,7.36203 -0.677096,13.09031 -1.241844,13.87983 -7.356306,-1.22461 -14.856676,-1.30816 -22.238896,-0.2651" /></g><g
             style="fill:#f5433b;fill-opacity:1"
             inkscape:export-ydpi="51.923077"
             inkscape:export-xdpi="51.923077"
             transform="matrix(-0.38268343,-0.92387953,0.92387953,-0.38268343,29.646041,148.49608)"
             id="g4217"><path
               d="m 77.366845,131.32135 c -6.742552,5.77441 -7.43122,14.47345 -7.43122,14.47345 -0.256397,1.08048 -0.400467,8.14576 -0.400467,8.14576 0.118174,8.08246 -3.864061,12.13952 -3.864061,12.13952 -4.584351,5.84066 -11.885906,8.8143 -11.885906,8.8143 0.317195,-0.0807 3.633642,-3.54697 3.636535,-3.54986 7.785579,-8.34459 0.619496,-18.10403 0.619496,-18.10403 -1.777885,-2.6941 -4.155013,-8.30428 -4.155013,-8.30428 -3.051493,-7.36203 0.677096,-13.09031 1.241844,-13.87983 7.356303,1.22461 14.856675,1.30816 22.238894,0.2651"
               id="path4219"
               style="fill:#f5433b;fill-opacity:1;fill-rule:nonzero;stroke:none"
               inkscape:connector-curvature="0" /><path
               d="m 52.6993,-3.730714 c 6.74256,-5.77441 7.43122,-14.47345 7.43122,-14.47345 0.2564,-1.08048 0.40047,-8.14576 0.40047,-8.14576 -0.11817,-8.08246 3.86406,-12.13952 3.86406,-12.13952 4.584353,-5.84066 11.885908,-8.8143 11.885908,-8.8143 -0.317195,0.0807 -3.633642,3.54697 -3.636535,3.54986 -7.785583,8.34459 -0.619496,18.10403 -0.619496,18.10403 1.777885,2.6941 4.155013,8.30428 4.155013,8.30428 3.051493,7.36203 -0.677096,13.09031 -1.241844,13.87983 -7.356306,-1.22461 -14.856676,-1.30816 -22.238896,-0.2651"
               id="path4221"
               style="fill:#f5433b;fill-opacity:1;fill-rule:nonzero;stroke:none"
               inkscape:connector-curvature="0" /></g><g
             style="fill:#f5433b;fill-opacity:1"
             inkscape:export-ydpi="51.923077"
             inkscape:export-xdpi="51.923077"
             id="g4223"
             transform="matrix(-0.70710678,-0.70710678,0.70710678,-0.70710678,64.573375,155.09537)"><path
               inkscape:connector-curvature="0"
               style="fill:#f5433b;fill-opacity:1;fill-rule:nonzero;stroke:none"
               id="path4225"
               d="m 77.366845,131.32135 c -6.742552,5.77441 -7.43122,14.47345 -7.43122,14.47345 -0.256397,1.08048 -0.400467,8.14576 -0.400467,8.14576 0.118174,8.08246 -3.864061,12.13952 -3.864061,12.13952 -4.584351,5.84066 -11.885906,8.8143 -11.885906,8.8143 0.317195,-0.0807 3.633642,-3.54697 3.636535,-3.54986 7.785579,-8.34459 0.619496,-18.10403 0.619496,-18.10403 -1.777885,-2.6941 -4.155013,-8.30428 -4.155013,-8.30428 -3.051493,-7.36203 0.677096,-13.09031 1.241844,-13.87983 7.356303,1.22461 14.856675,1.30816 22.238894,0.2651" /><path
               inkscape:connector-curvature="0"
               style="fill:#f5433b;fill-opacity:1;fill-rule:nonzero;stroke:none"
               id="path4227"
               d="m 52.6993,-3.730714 c 6.74256,-5.77441 7.43122,-14.47345 7.43122,-14.47345 0.2564,-1.08048 0.40047,-8.14576 0.40047,-8.14576 -0.11817,-8.08246 3.86406,-12.13952 3.86406,-12.13952 4.584353,-5.84066 11.885908,-8.8143 11.885908,-8.8143 -0.317195,0.0807 -3.633642,3.54697 -3.636535,3.54986 -7.785583,8.34459 -0.619496,18.10403 -0.619496,18.10403 1.777885,2.6941 4.155013,8.30428 4.155013,8.30428 3.051493,7.36203 -0.677096,13.09031 -1.241844,13.87983 -7.356306,-1.22461 -14.856676,-1.30816 -22.238896,-0.2651" /></g><g
             style="fill:#f5433b;fill-opacity:1"
             inkscape:export-ydpi="51.923077"
             inkscape:export-xdpi="51.923077"
             transform="matrix(-0.92387953,-0.38268343,0.38268343,-0.92387953,99.367464,147.82621)"
             id="g4229"><path
               d="m 77.366845,131.32135 c -6.742552,5.77441 -7.43122,14.47345 -7.43122,14.47345 -0.256397,1.08048 -0.400467,8.14576 -0.400467,8.14576 0.118174,8.08246 -3.864061,12.13952 -3.864061,12.13952 -4.584351,5.84066 -11.885906,8.8143 -11.885906,8.8143 0.317195,-0.0807 3.633642,-3.54697 3.636535,-3.54986 7.785579,-8.34459 0.619496,-18.10403 0.619496,-18.10403 -1.777885,-2.6941 -4.155013,-8.30428 -4.155013,-8.30428 -3.051493,-7.36203 0.677096,-13.09031 1.241844,-13.87983 7.356303,1.22461 14.856675,1.30816 22.238894,0.2651"
               id="path4231"
               style="fill:#f5433b;fill-opacity:1;fill-rule:nonzero;stroke:none"
               inkscape:connector-curvature="0" /><path
               d="m 52.6993,-3.730714 c 6.74256,-5.77441 7.43122,-14.47345 7.43122,-14.47345 0.2564,-1.08048 0.40047,-8.14576 0.40047,-8.14576 -0.11817,-8.08246 3.86406,-12.13952 3.86406,-12.13952 4.584353,-5.84066 11.885908,-8.8143 11.885908,-8.8143 -0.317195,0.0807 -3.633642,3.54697 -3.636535,3.54986 -7.785583,8.34459 -0.619496,18.10403 -0.619496,18.10403 1.777885,2.6941 4.155013,8.30428 4.155013,8.30428 3.051493,7.36203 -0.677096,13.09031 -1.241844,13.87983 -7.356306,-1.22461 -14.856676,-1.30816 -22.238896,-0.2651"
               id="path4233"
               style="fill:#f5433b;fill-opacity:1;fill-rule:nonzero;stroke:none"
               inkscape:connector-curvature="0" /></g></g><g
           id="g4235"><path
             style="opacity:1;fill:#34a853;fill-opacity:1;fill-rule:nonzero;stroke:none;stroke-width:1;stroke-miterlimit:4;stroke-dasharray:none;stroke-opacity:1"
             id="path4237"
             transform="scale(1,-1)"
             sodipodi:type="arc"
             sodipodi:cx="80.102219"
             sodipodi:cy="-72"
             sodipodi:rx="40"
             sodipodi:ry="40"
             sodipodi:start="1.5707963"
             sodipodi:end="3.1415927"
             d="M 80.10222,-32 A 40,40 0 0 1 51.817947,-43.715729 40,40 0 0 1 40.102219,-72.000002 l 40,2e-6 z" /><path
             style="opacity:1;fill:#e44e7b;fill-opacity:1;fill-rule:nonzero;stroke:none;stroke-width:1;stroke-miterlimit:4;stroke-dasharray:none;stroke-opacity:1"
             id="path4239"
             sodipodi:type="arc"
             sodipodi:cx="-72"
             sodipodi:cy="-80.102219"
             sodipodi:rx="40"
             sodipodi:ry="40"
             sodipodi:start="1.5707963"
             sodipodi:end="3.1415927"
             d="M -71.999999,-40.102219 A 40,40 0 0 1 -100.28427,-51.817948 40,40 0 0 1 -112,-80.10222 l 40,10e-7 z"
             transform="matrix(0,-1,-1,0,0,0)" /><path
             style="opacity:1;fill:#4285f4;fill-opacity:1;fill-rule:nonzero;stroke:none;stroke-width:1;stroke-miterlimit:4;stroke-dasharray:none;stroke-opacity:1"
             id="path4241"
             sodipodi:type="arc"
             sodipodi:cx="-80.102402"
             sodipodi:cy="72"
             sodipodi:rx="40"
             sodipodi:ry="40"
             sodipodi:start="1.5707963"
             sodipodi:end="3.1415927"
             d="M -80.102401,112 A 40,40 0 0 1 -108.38667,100.28427 40,40 0 0 1 -120.1024,71.999998 L -80.102402,72 Z"
             transform="scale(-1,1)" /><path
             style="opacity:1;fill:#ff9f00;fill-opacity:1;fill-rule:nonzero;stroke:none;stroke-width:1;stroke-miterlimit:4;stroke-dasharray:none;stroke-opacity:1"
             id="path4243"
             sodipodi:type="arc"
             sodipodi:cx="-80.102402"
             sodipodi:cy="-72"
             sodipodi:rx="40"
             sodipodi:ry="40"
             sodipodi:start="2.3561945"
             sodipodi:end="3.1415927"
             d="M -108.38667,-43.715729 A 40,40 0 0 1 -120.1024,-72.000002 L -80.102402,-72 Z"
             transform="scale(-1,-1)" /></g></g><g
         id="g4245"
         inkscape:export-xdpi="56.25"
         inkscape:export-ydpi="56.25"><g
           id="g4247"
           transform="matrix(-0.10858339,-0.56506928,0.56506928,-0.10858339,50.854374,114.9432)"
           inkscape:export-xdpi="62.67791"
           inkscape:export-ydpi="62.67791"
           style="fill:#f5433b;fill-opacity:1"><g
             transform="translate(-1.3349245,0.204632)"
             id="g4249"
             inkscape:export-xdpi="51.923077"
             inkscape:export-ydpi="51.923077"
             style="fill:#f5433b;fill-opacity:1"><path
               d="m 77.366845,131.32135 c -6.742552,5.77441 -7.43122,14.47345 -7.43122,14.47345 -0.256397,1.08048 -0.400467,8.14576 -0.400467,8.14576 0.118174,8.08246 -3.864061,12.13952 -3.864061,12.13952 -4.584351,5.84066 -11.885906,8.8143 -11.885906,8.8143 0.317195,-0.0807 3.633642,-3.54697 3.636535,-3.54986 7.785579,-8.34459 0.619496,-18.10403 0.619496,-18.10403 -1.777885,-2.6941 -4.155013,-8.30428 -4.155013,-8.30428 -3.051493,-7.36203 0.677096,-13.09031 1.241844,-13.87983 7.356303,1.22461 14.856675,1.30816 22.238894,0.2651"
               id="path4251"
               style="fill:#f5433b;fill-opacity:1;fill-rule:nonzero;stroke:none"
               inkscape:connector-curvature="0" /><path
               d="m 52.6993,-3.730714 c 6.74256,-5.77441 7.43122,-14.47345 7.43122,-14.47345 0.2564,-1.08048 0.40047,-8.14576 0.40047,-8.14576 -0.11817,-8.08246 3.86406,-12.13952 3.86406,-12.13952 4.584353,-5.84066 11.885908,-8.8143 11.885908,-8.8143 -0.317195,0.0807 -3.633642,3.54697 -3.636535,3.54986 -7.785583,8.34459 -0.619496,18.10403 -0.619496,18.10403 1.777885,2.6941 4.155013,8.30428 4.155013,8.30428 3.051493,7.36203 -0.677096,13.09031 -1.241844,13.87983 -7.356306,-1.22461 -14.856676,-1.30816 -22.238896,-0.2651"
               id="path4253"
               style="fill:#f5433b;fill-opacity:1;fill-rule:nonzero;stroke:none"
               inkscape:connector-curvature="0" /></g><g
             id="g4255"
             transform="matrix(0.92387953,-0.38268343,0.38268343,0.92387953,-20.797988,29.947842)"
             inkscape:export-xdpi="51.923077"
             inkscape:export-ydpi="51.923077"
             style="fill:#f5433b;fill-opacity:1"><path
               inkscape:connector-curvature="0"
               style="fill:#f5433b;fill-opacity:1;fill-rule:nonzero;stroke:none"
               id="path4257"
               d="m 77.366845,131.32135 c -6.742552,5.77441 -7.43122,14.47345 -7.43122,14.47345 -0.256397,1.08048 -0.400467,8.14576 -0.400467,8.14576 0.118174,8.08246 -3.864061,12.13952 -3.864061,12.13952 -4.584351,5.84066 -11.885906,8.8143 -11.885906,8.8143 0.317195,-0.0807 3.633642,-3.54697 3.636535,-3.54986 7.785579,-8.34459 0.619496,-18.10403 0.619496,-18.10403 -1.777885,-2.6941 -4.155013,-8.30428 -4.155013,-8.30428 -3.051493,-7.36203 0.677096,-13.09031 1.241844,-13.87983 7.356303,1.22461 14.856675,1.30816 22.238894,0.2651" /><path
               inkscape:connector-curvature="0"
               style="fill:#f5433b;fill-opacity:1;fill-rule:nonzero;stroke:none"
               id="path4259"
               d="m 52.6993,-3.730714 c 6.74256,-5.77441 7.43122,-14.47345 7.43122,-14.47345 0.2564,-1.08048 0.40047,-8.14576 0.40047,-8.14576 -0.11817,-8.08246 3.86406,-12.13952 3.86406,-12.13952 4.584353,-5.84066 11.885908,-8.8143 11.885908,-8.8143 -0.317195,0.0807 -3.633642,3.54697 -3.636535,3.54986 -7.785583,8.34459 -0.619496,18.10403 -0.619496,18.10403 1.777885,2.6941 4.155013,8.30428 4.155013,8.30428 3.051493,7.36203 -0.677096,13.09031 -1.241844,13.87983 -7.356306,-1.22461 -14.856676,-1.30816 -22.238896,-0.2651" /></g><g
             transform="matrix(0.70710678,-0.70710678,0.70710678,0.70710678,-27.39728,64.875176)"
             id="g4261"
             inkscape:export-xdpi="51.923077"
             inkscape:export-ydpi="51.923077"
             style="fill:#f5433b;fill-opacity:1"><path
               d="m 77.366845,131.32135 c -6.742552,5.77441 -7.43122,14.47345 -7.43122,14.47345 -0.256397,1.08048 -0.400467,8.14576 -0.400467,8.14576 0.118174,8.08246 -3.864061,12.13952 -3.864061,12.13952 -4.584351,5.84066 -11.885906,8.8143 -11.885906,8.8143 0.317195,-0.0807 3.633642,-3.54697 3.636535,-3.54986 7.785579,-8.34459 0.619496,-18.10403 0.619496,-18.10403 -1.777885,-2.6941 -4.155013,-8.30428 -4.155013,-8.30428 -3.051493,-7.36203 0.677096,-13.09031 1.241844,-13.87983 7.356303,1.22461 14.856675,1.30816 22.238894,0.2651"
               id="path4263"
               style="fill:#f5433b;fill-opacity:1;fill-rule:nonzero;stroke:none"
               inkscape:connector-curvature="0" /><path
               d="m 52.6993,-3.730714 c 6.74256,-5.77441 7.43122,-14.47345 7.43122,-14.47345 0.2564,-1.08048 0.40047,-8.14576 0.40047,-8.14576 -0.11817,-8.08246 3.86406,-12.13952 3.86406,-12.13952 4.584353,-5.84066 11.885908,-8.8143 11.885908,-8.8143 -0.317195,0.0807 -3.633642,3.54697 -3.636535,3.54986 -7.785583,8.34459 -0.619496,18.10403 -0.619496,18.10403 1.777885,2.6941 4.155013,8.30428 4.155013,8.30428 3.051493,7.36203 -0.677096,13.09031 -1.241844,13.87983 -7.356306,-1.22461 -14.856676,-1.30816 -22.238896,-0.2651"
               id="path4265"
               style="fill:#f5433b;fill-opacity:1;fill-rule:nonzero;stroke:none"
               inkscape:connector-curvature="0" /></g><g
             id="g4267"
             transform="matrix(0.38268343,-0.92387953,0.92387953,0.38268343,-20.128119,99.669265)"
             style="fill:#f5433b;fill-opacity:1"><path
               inkscape:connector-curvature="0"
               style="fill:#f5433b;fill-opacity:1;fill-rule:nonzero;stroke:none"
               id="path4269"
               d="m 77.366845,131.32135 c -6.742552,5.77441 -7.43122,14.47345 -7.43122,14.47345 -0.256397,1.08048 -0.400467,8.14576 -0.400467,8.14576 0.118174,8.08246 -3.864061,12.13952 -3.864061,12.13952 -4.584351,5.84066 -11.885906,8.8143 -11.885906,8.8143 0.317195,-0.0807 3.633642,-3.54697 3.636535,-3.54986 7.785579,-8.34459 0.619496,-18.10403 0.619496,-18.10403 -1.777885,-2.6941 -4.155013,-8.30428 -4.155013,-8.30428 -3.051493,-7.36203 0.677096,-13.09031 1.241844,-13.87983 7.356303,1.22461 14.856675,1.30816 22.238894,0.2651"
               inkscape:export-xdpi="51.923077"
               inkscape:export-ydpi="51.923077" /><path
               inkscape:connector-curvature="0"
               style="fill:#f5433b;fill-opacity:1;fill-rule:nonzero;stroke:none"
               id="path4271"
               d="m 52.6993,-3.730714 c 6.74256,-5.77441 7.43122,-14.47345 7.43122,-14.47345 0.2564,-1.08048 0.40047,-8.14576 0.40047,-8.14576 -0.11817,-8.08246 3.86406,-12.13952 3.86406,-12.13952 4.584353,-5.84066 11.885908,-8.8143 11.885908,-8.8143 -0.317195,0.0807 -3.633642,3.54697 -3.636535,3.54986 -7.785583,8.34459 -0.619496,18.10403 -0.619496,18.10403 1.777885,2.6941 4.155013,8.30428 4.155013,8.30428 3.051493,7.36203 -0.677096,13.09031 -1.241844,13.87983 -7.356306,-1.22461 -14.856676,-1.30816 -22.238896,-0.2651"
               inkscape:export-xdpi="51.923077"
               inkscape:export-ydpi="51.923077" /></g><g
             transform="matrix(0,-1,1,0,-0.09716829,129.03302)"
             id="g4273"
             inkscape:export-xdpi="51.923077"
             inkscape:export-ydpi="51.923077"
             style="fill:#f5433b;fill-opacity:1"><path
               d="m 77.366845,131.32135 c -6.742552,5.77441 -7.43122,14.47345 -7.43122,14.47345 -0.256397,1.08048 -0.400467,8.14576 -0.400467,8.14576 0.118174,8.08246 -3.864061,12.13952 -3.864061,12.13952 -4.584351,5.84066 -11.885906,8.8143 -11.885906,8.8143 0.317195,-0.0807 3.633642,-3.54697 3.636535,-3.54986 7.785579,-8.34459 0.619496,-18.10403 0.619496,-18.10403 -1.777885,-2.6941 -4.155013,-8.30428 -4.155013,-8.30428 -3.051493,-7.36203 0.677096,-13.09031 1.241844,-13.87983 7.356303,1.22461 14.856675,1.30816 22.238894,0.2651"
               id="path4275"
               style="fill:#f5433b;fill-opacity:1;fill-rule:nonzero;stroke:none"
               inkscape:connector-curvature="0" /><path
               d="m 52.6993,-3.730714 c 6.74256,-5.77441 7.43122,-14.47345 7.43122,-14.47345 0.2564,-1.08048 0.40047,-8.14576 0.40047,-8.14576 -0.11817,-8.08246 3.86406,-12.13952 3.86406,-12.13952 4.584353,-5.84066 11.885908,-8.8143 11.885908,-8.8143 -0.317195,0.0807 -3.633642,3.54697 -3.636535,3.54986 -7.785583,8.34459 -0.619496,18.10403 -0.619496,18.10403 1.777885,2.6941 4.155013,8.30428 4.155013,8.30428 3.051493,7.36203 -0.677096,13.09031 -1.241844,13.87983 -7.356306,-1.22461 -14.856676,-1.30816 -22.238896,-0.2651"
               id="path4277"
               style="fill:#f5433b;fill-opacity:1;fill-rule:nonzero;stroke:none"
               inkscape:connector-curvature="0" /></g><g
             id="g4279"
             transform="matrix(-0.38268343,-0.92387953,0.92387953,-0.38268343,29.646041,148.49608)"
             inkscape:export-xdpi="51.923077"
             inkscape:export-ydpi="51.923077"
             style="fill:#f5433b;fill-opacity:1"><path
               inkscape:connector-curvature="0"
               style="fill:#f5433b;fill-opacity:1;fill-rule:nonzero;stroke:none"
               id="path4281"
               d="m 77.366845,131.32135 c -6.742552,5.77441 -7.43122,14.47345 -7.43122,14.47345 -0.256397,1.08048 -0.400467,8.14576 -0.400467,8.14576 0.118174,8.08246 -3.864061,12.13952 -3.864061,12.13952 -4.584351,5.84066 -11.885906,8.8143 -11.885906,8.8143 0.317195,-0.0807 3.633642,-3.54697 3.636535,-3.54986 7.785579,-8.34459 0.619496,-18.10403 0.619496,-18.10403 -1.777885,-2.6941 -4.155013,-8.30428 -4.155013,-8.30428 -3.051493,-7.36203 0.677096,-13.09031 1.241844,-13.87983 7.356303,1.22461 14.856675,1.30816 22.238894,0.2651" /><path
               inkscape:connector-curvature="0"
               style="fill:#f5433b;fill-opacity:1;fill-rule:nonzero;stroke:none"
               id="path4283"
               d="m 52.6993,-3.730714 c 6.74256,-5.77441 7.43122,-14.47345 7.43122,-14.47345 0.2564,-1.08048 0.40047,-8.14576 0.40047,-8.14576 -0.11817,-8.08246 3.86406,-12.13952 3.86406,-12.13952 4.584353,-5.84066 11.885908,-8.8143 11.885908,-8.8143 -0.317195,0.0807 -3.633642,3.54697 -3.636535,3.54986 -7.785583,8.34459 -0.619496,18.10403 -0.619496,18.10403 1.777885,2.6941 4.155013,8.30428 4.155013,8.30428 3.051493,7.36203 -0.677096,13.09031 -1.241844,13.87983 -7.356306,-1.22461 -14.856676,-1.30816 -22.238896,-0.2651" /></g><g
             transform="matrix(-0.70710678,-0.70710678,0.70710678,-0.70710678,64.573375,155.09537)"
             id="g4285"
             inkscape:export-xdpi="51.923077"
             inkscape:export-ydpi="51.923077"
             style="fill:#f5433b;fill-opacity:1"><path
               d="m 77.366845,131.32135 c -6.742552,5.77441 -7.43122,14.47345 -7.43122,14.47345 -0.256397,1.08048 -0.400467,8.14576 -0.400467,8.14576 0.118174,8.08246 -3.864061,12.13952 -3.864061,12.13952 -4.584351,5.84066 -11.885906,8.8143 -11.885906,8.8143 0.317195,-0.0807 3.633642,-3.54697 3.636535,-3.54986 7.785579,-8.34459 0.619496,-18.10403 0.619496,-18.10403 -1.777885,-2.6941 -4.155013,-8.30428 -4.155013,-8.30428 -3.051493,-7.36203 0.677096,-13.09031 1.241844,-13.87983 7.356303,1.22461 14.856675,1.30816 22.238894,0.2651"
               id="path4287"
               style="fill:#f5433b;fill-opacity:1;fill-rule:nonzero;stroke:none"
               inkscape:connector-curvature="0" /><path
               d="m 52.6993,-3.730714 c 6.74256,-5.77441 7.43122,-14.47345 7.43122,-14.47345 0.2564,-1.08048 0.40047,-8.14576 0.40047,-8.14576 -0.11817,-8.08246 3.86406,-12.13952 3.86406,-12.13952 4.584353,-5.84066 11.885908,-8.8143 11.885908,-8.8143 -0.317195,0.0807 -3.633642,3.54697 -3.636535,3.54986 -7.785583,8.34459 -0.619496,18.10403 -0.619496,18.10403 1.777885,2.6941 4.155013,8.30428 4.155013,8.30428 3.051493,7.36203 -0.677096,13.09031 -1.241844,13.87983 -7.356306,-1.22461 -14.856676,-1.30816 -22.238896,-0.2651"
               id="path4289"
               style="fill:#f5433b;fill-opacity:1;fill-rule:nonzero;stroke:none"
               inkscape:connector-curvature="0" /></g><g
             id="g4291"
             transform="matrix(-0.92387953,-0.38268343,0.38268343,-0.92387953,99.367464,147.82621)"
             inkscape:export-xdpi="51.923077"
             inkscape:export-ydpi="51.923077"
             style="fill:#f5433b;fill-opacity:1"><path
               inkscape:connector-curvature="0"
               style="fill:#f5433b;fill-opacity:1;fill-rule:nonzero;stroke:none"
               id="path4293"
               d="m 77.366845,131.32135 c -6.742552,5.77441 -7.43122,14.47345 -7.43122,14.47345 -0.256397,1.08048 -0.400467,8.14576 -0.400467,8.14576 0.118174,8.08246 -3.864061,12.13952 -3.864061,12.13952 -4.584351,5.84066 -11.885906,8.8143 -11.885906,8.8143 0.317195,-0.0807 3.633642,-3.54697 3.636535,-3.54986 7.785579,-8.34459 0.619496,-18.10403 0.619496,-18.10403 -1.777885,-2.6941 -4.155013,-8.30428 -4.155013,-8.30428 -3.051493,-7.36203 0.677096,-13.09031 1.241844,-13.87983 7.356303,1.22461 14.856675,1.30816 22.238894,0.2651" /><path
               inkscape:connector-curvature="0"
               style="fill:#f5433b;fill-opacity:1;fill-rule:nonzero;stroke:none"
               id="path4295"
               d="m 52.6993,-3.730714 c 6.74256,-5.77441 7.43122,-14.47345 7.43122,-14.47345 0.2564,-1.08048 0.40047,-8.14576 0.40047,-8.14576 -0.11817,-8.08246 3.86406,-12.13952 3.86406,-12.13952 4.584353,-5.84066 11.885908,-8.8143 11.885908,-8.8143 -0.317195,0.0807 -3.633642,3.54697 -3.636535,3.54986 -7.785583,8.34459 -0.619496,18.10403 -0.619496,18.10403 1.777885,2.6941 4.155013,8.30428 4.155013,8.30428 3.051493,7.36203 -0.677096,13.09031 -1.241844,13.87983 -7.356306,-1.22461 -14.856676,-1.30816 -22.238896,-0.2651" /></g></g><g
           id="g4297"><path
             d="M 80.10222,-32 A 40,40 0 0 1 51.817947,-43.715729 40,40 0 0 1 40.102219,-72.000002 l 40,2e-6 z"
             sodipodi:end="3.1415927"
             sodipodi:start="1.5707963"
             sodipodi:ry="40"
             sodipodi:rx="40"
             sodipodi:cy="-72"
             sodipodi:cx="80.102219"
             sodipodi:type="arc"
             transform="scale(1,-1)"
             id="path4299"
             style="opacity:1;fill:#34a853;fill-opacity:1;fill-rule:nonzero;stroke:none;stroke-width:1;stroke-miterlimit:4;stroke-dasharray:none;stroke-opacity:1" /><path
             transform="matrix(0,-1,-1,0,0,0)"
             d="M -71.999999,-40.102219 A 40,40 0 0 1 -100.28427,-51.817948 40,40 0 0 1 -112,-80.10222 l 40,10e-7 z"
             sodipodi:end="3.1415927"
             sodipodi:start="1.5707963"
             sodipodi:ry="40"
             sodipodi:rx="40"
             sodipodi:cy="-80.102219"
             sodipodi:cx="-72"
             sodipodi:type="arc"
             id="path4301"
             style="opacity:1;fill:#e44e7b;fill-opacity:1;fill-rule:nonzero;stroke:none;stroke-width:1;stroke-miterlimit:4;stroke-dasharray:none;stroke-opacity:1" /><path
             transform="scale(-1,1)"
             d="M -80.102401,112 A 40,40 0 0 1 -108.38667,100.28427 40,40 0 0 1 -120.1024,71.999998 L -80.102402,72 Z"
             sodipodi:end="3.1415927"
             sodipodi:start="1.5707963"
             sodipodi:ry="40"
             sodipodi:rx="40"
             sodipodi:cy="72"
             sodipodi:cx="-80.102402"
             sodipodi:type="arc"
             id="path4303"
             style="opacity:1;fill:#4285f4;fill-opacity:1;fill-rule:nonzero;stroke:none;stroke-width:1;stroke-miterlimit:4;stroke-dasharray:none;stroke-opacity:1" /><path
             transform="scale(-1,-1)"
             d="M -108.38667,-43.715729 A 40,40 0 0 1 -120.1024,-72.000002 L -80.102402,-72 Z"
             sodipodi:end="3.1415927"
             sodipodi:start="2.3561945"
             sodipodi:ry="40"
             sodipodi:rx="40"
             sodipodi:cy="-72"
             sodipodi:cx="-80.102402"
             sodipodi:type="arc"
             id="path4305"
             style="opacity:1;fill:#ff9f00;fill-opacity:1;fill-rule:nonzero;stroke:none;stroke-width:1;stroke-miterlimit:4;stroke-dasharray:none;stroke-opacity:1" /></g></g></g></g></svg>