<?xml version="1.0" encoding="UTF-8" standalone="no"?>
<!-- Created with Inkscape (http://www.inkscape.org/) -->

<svg
   xmlns:dc="http://purl.org/dc/elements/1.1/"
   xmlns:cc="http://creativecommons.org/ns#"
   xmlns:rdf="http://www.w3.org/1999/02/22-rdf-syntax-ns#"
   xmlns:svg="http://www.w3.org/2000/svg"
   xmlns="http://www.w3.org/2000/svg"
   xmlns:sodipodi="http://sodipodi.sourceforge.net/DTD/sodipodi-0.dtd"
   xmlns:inkscape="http://www.inkscape.org/namespaces/inkscape"
   id="svg2"
   version="1.1"
   inkscape:version="0.91 r13725"
   xml:space="preserve"
   width="1068.4913"
   height="160"
   viewBox="0 0 1068.4913 160"
   sodipodi:docname="logotype_variant.svg"
   inkscape:export-filename="/ws/newinit/doc/logotype.png"
   inkscape:export-xdpi="53.907784"
   inkscape:export-ydpi="53.907784"><metadata
     id="metadata8"><rdf:RDF><cc:Work
         rdf:about=""><dc:format>image/svg+xml</dc:format><dc:type
           rdf:resource="http://purl.org/dc/dcmitype/StillImage" /><dc:title></dc:title></cc:Work></rdf:RDF></metadata><defs
     id="defs6"><clipPath
       clipPathUnits="userSpaceOnUse"
       id="clipPath16"><path
         d="m 0,128 854.793,0 0,-128 L 0,0 0,128 Z"
         id="path18"
         inkscape:connector-curvature="0" /></clipPath></defs><sodipodi:namedview
     pagecolor="#ffffff"
     bordercolor="#666666"
     borderopacity="1"
     objecttolerance="10"
     gridtolerance="10"
     guidetolerance="10"
     inkscape:pageopacity="0"
     inkscape:pageshadow="2"
     inkscape:window-width="1920"
     inkscape:window-height="991"
     id="namedview4"
     showgrid="false"
     inkscape:zoom="0.80408885"
     inkscape:cx="522.47677"
     inkscape:cy="-83.562368"
     inkscape:window-x="0"
     inkscape:window-y="27"
     inkscape:window-maximized="1"
     inkscape:current-layer="g5169" /><g
     id="g10"
     inkscape:groupmode="layer"
     inkscape:label="logotype"
     transform="matrix(1.25,0,0,-1.25,0,160)"><g
       id="g5199"
       transform="matrix(-0.17644801,-0.91823758,0.91823758,-0.17644801,16.170403,133.78265)"><g
         transform="translate(-1.3349245,0.204632)"
         id="g4937"
         inkscape:export-xdpi="51.923077"
         inkscape:export-ydpi="51.923077"><path
           d="m 77.366845,131.32135 c -6.742552,5.77441 -7.43122,14.47345 -7.43122,14.47345 -0.256397,1.08048 -0.400467,8.14576 -0.400467,8.14576 0.118174,8.08246 -3.864061,12.13952 -3.864061,12.13952 -4.584351,5.84066 -11.885906,8.8143 -11.885906,8.8143 0.317195,-0.0807 3.633642,-3.54697 3.636535,-3.54986 7.785579,-8.34459 0.619496,-18.10403 0.619496,-18.10403 -1.777885,-2.6941 -4.155013,-8.30428 -4.155013,-8.30428 -3.051493,-7.36203 0.677096,-13.09031 1.241844,-13.87983 7.356303,1.22461 14.856675,1.30816 22.238894,0.2651"
           id="path214"
           style="fill:#ff0000;fill-opacity:1;fill-rule:nonzero;stroke:none"
           inkscape:connector-curvature="0" /><path
           d="m 52.6993,-3.730714 c 6.74256,-5.77441 7.43122,-14.47345 7.43122,-14.47345 0.2564,-1.08048 0.40047,-8.14576 0.40047,-8.14576 -0.11817,-8.08246 3.86406,-12.13952 3.86406,-12.13952 4.584353,-5.84066 11.885908,-8.8143 11.885908,-8.8143 -0.317195,0.0807 -3.633642,3.54697 -3.636535,3.54986 -7.785583,8.34459 -0.619496,18.10403 -0.619496,18.10403 1.777885,2.6941 4.155013,8.30428 4.155013,8.30428 3.051493,7.36203 -0.677096,13.09031 -1.241844,13.87983 -7.356306,-1.22461 -14.856676,-1.30816 -22.238896,-0.2651"
           id="path214-5"
           style="fill:#ff0000;fill-opacity:1;fill-rule:nonzero;stroke:none"
           inkscape:connector-curvature="0" /></g><g
         id="g5157"
         transform="matrix(0.92387953,-0.38268343,0.38268343,0.92387953,-20.797988,29.947842)"
         inkscape:export-xdpi="51.923077"
         inkscape:export-ydpi="51.923077"><path
           inkscape:connector-curvature="0"
           style="fill:#ff0000;fill-opacity:1;fill-rule:nonzero;stroke:none"
           id="path5159"
           d="m 77.366845,131.32135 c -6.742552,5.77441 -7.43122,14.47345 -7.43122,14.47345 -0.256397,1.08048 -0.400467,8.14576 -0.400467,8.14576 0.118174,8.08246 -3.864061,12.13952 -3.864061,12.13952 -4.584351,5.84066 -11.885906,8.8143 -11.885906,8.8143 0.317195,-0.0807 3.633642,-3.54697 3.636535,-3.54986 7.785579,-8.34459 0.619496,-18.10403 0.619496,-18.10403 -1.777885,-2.6941 -4.155013,-8.30428 -4.155013,-8.30428 -3.051493,-7.36203 0.677096,-13.09031 1.241844,-13.87983 7.356303,1.22461 14.856675,1.30816 22.238894,0.2651" /><path
           inkscape:connector-curvature="0"
           style="fill:#ff0000;fill-opacity:1;fill-rule:nonzero;stroke:none"
           id="path5161"
           d="m 52.6993,-3.730714 c 6.74256,-5.77441 7.43122,-14.47345 7.43122,-14.47345 0.2564,-1.08048 0.40047,-8.14576 0.40047,-8.14576 -0.11817,-8.08246 3.86406,-12.13952 3.86406,-12.13952 4.584353,-5.84066 11.885908,-8.8143 11.885908,-8.8143 -0.317195,0.0807 -3.633642,3.54697 -3.636535,3.54986 -7.785583,8.34459 -0.619496,18.10403 -0.619496,18.10403 1.777885,2.6941 4.155013,8.30428 4.155013,8.30428 3.051493,7.36203 -0.677096,13.09031 -1.241844,13.87983 -7.356306,-1.22461 -14.856676,-1.30816 -22.238896,-0.2651" /></g><g
         transform="matrix(0.70710678,-0.70710678,0.70710678,0.70710678,-27.39728,64.875176)"
         id="g5163"
         inkscape:export-xdpi="51.923077"
         inkscape:export-ydpi="51.923077"><path
           d="m 77.366845,131.32135 c -6.742552,5.77441 -7.43122,14.47345 -7.43122,14.47345 -0.256397,1.08048 -0.400467,8.14576 -0.400467,8.14576 0.118174,8.08246 -3.864061,12.13952 -3.864061,12.13952 -4.584351,5.84066 -11.885906,8.8143 -11.885906,8.8143 0.317195,-0.0807 3.633642,-3.54697 3.636535,-3.54986 7.785579,-8.34459 0.619496,-18.10403 0.619496,-18.10403 -1.777885,-2.6941 -4.155013,-8.30428 -4.155013,-8.30428 -3.051493,-7.36203 0.677096,-13.09031 1.241844,-13.87983 7.356303,1.22461 14.856675,1.30816 22.238894,0.2651"
           id="path5165"
           style="fill:#ff0000;fill-opacity:1;fill-rule:nonzero;stroke:none"
           inkscape:connector-curvature="0" /><path
           d="m 52.6993,-3.730714 c 6.74256,-5.77441 7.43122,-14.47345 7.43122,-14.47345 0.2564,-1.08048 0.40047,-8.14576 0.40047,-8.14576 -0.11817,-8.08246 3.86406,-12.13952 3.86406,-12.13952 4.584353,-5.84066 11.885908,-8.8143 11.885908,-8.8143 -0.317195,0.0807 -3.633642,3.54697 -3.636535,3.54986 -7.785583,8.34459 -0.619496,18.10403 -0.619496,18.10403 1.777885,2.6941 4.155013,8.30428 4.155013,8.30428 3.051493,7.36203 -0.677096,13.09031 -1.241844,13.87983 -7.356306,-1.22461 -14.856676,-1.30816 -22.238896,-0.2651"
           id="path5167"
           style="fill:#ff0000;fill-opacity:1;fill-rule:nonzero;stroke:none"
           inkscape:connector-curvature="0" /></g><g
         id="g5169"
         transform="matrix(0.38268343,-0.92387953,0.92387953,0.38268343,-20.128119,99.669265)"><path
           inkscape:connector-curvature="0"
           style="fill:#ff0000;fill-opacity:1;fill-rule:nonzero;stroke:none"
           id="path5171"
           d="m 77.366845,131.32135 c -6.742552,5.77441 -7.43122,14.47345 -7.43122,14.47345 -0.256397,1.08048 -0.400467,8.14576 -0.400467,8.14576 0.118174,8.08246 -3.864061,12.13952 -3.864061,12.13952 -4.584351,5.84066 -11.885906,8.8143 -11.885906,8.8143 0.317195,-0.0807 3.633642,-3.54697 3.636535,-3.54986 7.785579,-8.34459 0.619496,-18.10403 0.619496,-18.10403 -1.777885,-2.6941 -4.155013,-8.30428 -4.155013,-8.30428 -3.051493,-7.36203 0.677096,-13.09031 1.241844,-13.87983 7.356303,1.22461 14.856675,1.30816 22.238894,0.2651"
           inkscape:export-xdpi="51.923077"
           inkscape:export-ydpi="51.923077" /><path
           inkscape:connector-curvature="0"
           style="fill:#ff0000;fill-opacity:1;fill-rule:nonzero;stroke:none"
           id="path5173"
           d="m 52.6993,-3.730714 c 6.74256,-5.77441 7.43122,-14.47345 7.43122,-14.47345 0.2564,-1.08048 0.40047,-8.14576 0.40047,-8.14576 -0.11817,-8.08246 3.86406,-12.13952 3.86406,-12.13952 4.584353,-5.84066 11.885908,-8.8143 11.885908,-8.8143 -0.317195,0.0807 -3.633642,3.54697 -3.636535,3.54986 -7.785583,8.34459 -0.619496,18.10403 -0.619496,18.10403 1.777885,2.6941 4.155013,8.30428 4.155013,8.30428 3.051493,7.36203 -0.677096,13.09031 -1.241844,13.87983 -7.356306,-1.22461 -14.856676,-1.30816 -22.238896,-0.2651"
           inkscape:export-xdpi="51.923077"
           inkscape:export-ydpi="51.923077" /></g><g
         transform="matrix(0,-1,1,0,-0.09716829,129.03302)"
         id="g5175"
         inkscape:export-xdpi="51.923077"
         inkscape:export-ydpi="51.923077"><path
           d="m 77.366845,131.32135 c -6.742552,5.77441 -7.43122,14.47345 -7.43122,14.47345 -0.256397,1.08048 -0.400467,8.14576 -0.400467,8.14576 0.118174,8.08246 -3.864061,12.13952 -3.864061,12.13952 -4.584351,5.84066 -11.885906,8.8143 -11.885906,8.8143 0.317195,-0.0807 3.633642,-3.54697 3.636535,-3.54986 7.785579,-8.34459 0.619496,-18.10403 0.619496,-18.10403 -1.777885,-2.6941 -4.155013,-8.30428 -4.155013,-8.30428 -3.051493,-7.36203 0.677096,-13.09031 1.241844,-13.87983 7.356303,1.22461 14.856675,1.30816 22.238894,0.2651"
           id="path5177"
           style="fill:#ff0000;fill-opacity:1;fill-rule:nonzero;stroke:none"
           inkscape:connector-curvature="0" /><path
           d="m 52.6993,-3.730714 c 6.74256,-5.77441 7.43122,-14.47345 7.43122,-14.47345 0.2564,-1.08048 0.40047,-8.14576 0.40047,-8.14576 -0.11817,-8.08246 3.86406,-12.13952 3.86406,-12.13952 4.584353,-5.84066 11.885908,-8.8143 11.885908,-8.8143 -0.317195,0.0807 -3.633642,3.54697 -3.636535,3.54986 -7.785583,8.34459 -0.619496,18.10403 -0.619496,18.10403 1.777885,2.6941 4.155013,8.30428 4.155013,8.30428 3.051493,7.36203 -0.677096,13.09031 -1.241844,13.87983 -7.356306,-1.22461 -14.856676,-1.30816 -22.238896,-0.2651"
           id="path5179"
           style="fill:#ff0000;fill-opacity:1;fill-rule:nonzero;stroke:none"
           inkscape:connector-curvature="0" /></g><g
         id="g5181"
         transform="matrix(-0.38268343,-0.92387953,0.92387953,-0.38268343,29.646041,148.49608)"
         inkscape:export-xdpi="51.923077"
         inkscape:export-ydpi="51.923077"><path
           inkscape:connector-curvature="0"
           style="fill:#ff0000;fill-opacity:1;fill-rule:nonzero;stroke:none"
           id="path5183"
           d="m 77.366845,131.32135 c -6.742552,5.77441 -7.43122,14.47345 -7.43122,14.47345 -0.256397,1.08048 -0.400467,8.14576 -0.400467,8.14576 0.118174,8.08246 -3.864061,12.13952 -3.864061,12.13952 -4.584351,5.84066 -11.885906,8.8143 -11.885906,8.8143 0.317195,-0.0807 3.633642,-3.54697 3.636535,-3.54986 7.785579,-8.34459 0.619496,-18.10403 0.619496,-18.10403 -1.777885,-2.6941 -4.155013,-8.30428 -4.155013,-8.30428 -3.051493,-7.36203 0.677096,-13.09031 1.241844,-13.87983 7.356303,1.22461 14.856675,1.30816 22.238894,0.2651" /><path
           inkscape:connector-curvature="0"
           style="fill:#ff0000;fill-opacity:1;fill-rule:nonzero;stroke:none"
           id="path5185"
           d="m 52.6993,-3.730714 c 6.74256,-5.77441 7.43122,-14.47345 7.43122,-14.47345 0.2564,-1.08048 0.40047,-8.14576 0.40047,-8.14576 -0.11817,-8.08246 3.86406,-12.13952 3.86406,-12.13952 4.584353,-5.84066 11.885908,-8.8143 11.885908,-8.8143 -0.317195,0.0807 -3.633642,3.54697 -3.636535,3.54986 -7.785583,8.34459 -0.619496,18.10403 -0.619496,18.10403 1.777885,2.6941 4.155013,8.30428 4.155013,8.30428 3.051493,7.36203 -0.677096,13.09031 -1.241844,13.87983 -7.356306,-1.22461 -14.856676,-1.30816 -22.238896,-0.2651" /></g><g
         transform="matrix(-0.70710678,-0.70710678,0.70710678,-0.70710678,64.573375,155.09537)"
         id="g5187"
         inkscape:export-xdpi="51.923077"
         inkscape:export-ydpi="51.923077"><path
           d="m 77.366845,131.32135 c -6.742552,5.77441 -7.43122,14.47345 -7.43122,14.47345 -0.256397,1.08048 -0.400467,8.14576 -0.400467,8.14576 0.118174,8.08246 -3.864061,12.13952 -3.864061,12.13952 -4.584351,5.84066 -11.885906,8.8143 -11.885906,8.8143 0.317195,-0.0807 3.633642,-3.54697 3.636535,-3.54986 7.785579,-8.34459 0.619496,-18.10403 0.619496,-18.10403 -1.777885,-2.6941 -4.155013,-8.30428 -4.155013,-8.30428 -3.051493,-7.36203 0.677096,-13.09031 1.241844,-13.87983 7.356303,1.22461 14.856675,1.30816 22.238894,0.2651"
           id="path5189"
           style="fill:#ff0000;fill-opacity:1;fill-rule:nonzero;stroke:none"
           inkscape:connector-curvature="0" /><path
           d="m 52.6993,-3.730714 c 6.74256,-5.77441 7.43122,-14.47345 7.43122,-14.47345 0.2564,-1.08048 0.40047,-8.14576 0.40047,-8.14576 -0.11817,-8.08246 3.86406,-12.13952 3.86406,-12.13952 4.584353,-5.84066 11.885908,-8.8143 11.885908,-8.8143 -0.317195,0.0807 -3.633642,3.54697 -3.636535,3.54986 -7.785583,8.34459 -0.619496,18.10403 -0.619496,18.10403 1.777885,2.6941 4.155013,8.30428 4.155013,8.30428 3.051493,7.36203 -0.677096,13.09031 -1.241844,13.87983 -7.356306,-1.22461 -14.856676,-1.30816 -22.238896,-0.2651"
           id="path5191"
           style="fill:#ff0000;fill-opacity:1;fill-rule:nonzero;stroke:none"
           inkscape:connector-curvature="0" /></g><g
         id="g5193"
         transform="matrix(-0.92387953,-0.38268343,0.38268343,-0.92387953,99.367464,147.82621)"
         inkscape:export-xdpi="51.923077"
         inkscape:export-ydpi="51.923077"><path
           inkscape:connector-curvature="0"
           style="fill:#ff0000;fill-opacity:1;fill-rule:nonzero;stroke:none"
           id="path5195"
           d="m 77.366845,131.32135 c -6.742552,5.77441 -7.43122,14.47345 -7.43122,14.47345 -0.256397,1.08048 -0.400467,8.14576 -0.400467,8.14576 0.118174,8.08246 -3.864061,12.13952 -3.864061,12.13952 -4.584351,5.84066 -11.885906,8.8143 -11.885906,8.8143 0.317195,-0.0807 3.633642,-3.54697 3.636535,-3.54986 7.785579,-8.34459 0.619496,-18.10403 0.619496,-18.10403 -1.777885,-2.6941 -4.155013,-8.30428 -4.155013,-8.30428 -3.051493,-7.36203 0.677096,-13.09031 1.241844,-13.87983 7.356303,1.22461 14.856675,1.30816 22.238894,0.2651" /><path
           inkscape:connector-curvature="0"
           style="fill:#ff0000;fill-opacity:1;fill-rule:nonzero;stroke:none"
           id="path5197"
           d="m 52.6993,-3.730714 c 6.74256,-5.77441 7.43122,-14.47345 7.43122,-14.47345 0.2564,-1.08048 0.40047,-8.14576 0.40047,-8.14576 -0.11817,-8.08246 3.86406,-12.13952 3.86406,-12.13952 4.584353,-5.84066 11.885908,-8.8143 11.885908,-8.8143 -0.317195,0.0807 -3.633642,3.54697 -3.636535,3.54986 -7.785583,8.34459 -0.619496,18.10403 -0.619496,18.10403 1.777885,2.6941 4.155013,8.30428 4.155013,8.30428 3.051493,7.36203 -0.677096,13.09031 -1.241844,13.87983 -7.356306,-1.22461 -14.856676,-1.30816 -22.238896,-0.2651" /></g></g><g
       id="g12"
       inkscape:export-xdpi="51.923077"
       inkscape:export-ydpi="51.923077"><g
         id="g14"
         clip-path="url(#clipPath16)"><g
           id="g20"
           transform="translate(63.6463,32.0127)"><path
             d="m 0,0 c -0.084,0 -0.166,-0.013 -0.25,-0.013 -8.836,0 -16.837,3.582 -22.627,9.373 -5.736,5.735 -9.293,13.641 -9.36,22.377 l -32,-0.25 c 0.134,-17.473 7.26,-33.282 18.732,-44.755 11.582,-11.581 27.582,-18.745 45.255,-18.745 0.167,0 0.333,0.012 0.5,0.013 L 0,0 Z"
             style="fill:#f78044;fill-opacity:1;fill-rule:nonzero;stroke:none"
             id="path22"
             inkscape:connector-curvature="0" /></g><g
           id="g24"
           transform="translate(127.3963,63.9999)"><path
             d="m 0,0 c 0,0.168 -0.011,0.333 -0.013,0.5 l -32,-0.25 C -32.012,0.166 -32,0.084 -32,0 c 0,-8.837 -3.582,-16.837 -9.373,-22.627 l 22.628,-22.628 C -7.163,-33.673 0,-17.673 0,0"
             style="fill:#ff9f00;fill-opacity:1;fill-rule:nonzero;stroke:none"
             id="path26"
             inkscape:connector-curvature="0" /></g><g
           id="g28"
           transform="translate(63.1463,95.9873)"><path
             d="M 0,0 -0.25,32 C -17.724,31.866 -33.533,24.739 -45.005,13.268 -56.586,1.686 -63.75,-14.314 -63.75,-31.987 c 0,-0.168 0.011,-0.333 0.013,-0.5 l 32,0.25 c -0.001,0.084 -0.013,0.165 -0.013,0.25 0,8.836 3.582,16.836 9.373,22.627 C -16.642,-3.624 -8.736,-0.067 0,0"
             style="fill:#f05a49;fill-opacity:1;fill-rule:nonzero;stroke:none"
             id="path30"
             inkscape:connector-curvature="0" /></g><g
           id="g32"
           transform="translate(108.6512,109.2549)"><path
             d="m 0,0 c -11.582,11.582 -27.582,18.745 -45.255,18.745 -0.167,0 -0.332,-0.011 -0.5,-0.013 l 0.25,-32 c 0.085,0.001 0.166,0.013 0.25,0.013 8.837,0 16.837,-3.581 22.628,-9.372 5.735,-5.736 9.292,-13.642 9.359,-22.378 l 32,0.25 C 18.598,-27.281 11.472,-11.472 0,0"
             style="fill:#1e8bc3;fill-opacity:1;fill-rule:nonzero;stroke:none"
             id="path34"
             inkscape:connector-curvature="0" /></g><g
           id="g36"
           transform="translate(167.0548,48.6102)" /><g
           id="g40"
           transform="translate(255.4775,5.8913)" /><g
           id="g44"
           transform="translate(330.3876,44.0031)" /><g
           id="g48"
           transform="translate(409.4686,95.0639)" /><g
           id="g52"
           transform="translate(510.4189,70.0383)" /><g
           id="g56"
           transform="translate(549.5207,100.5287)" /><g
           id="g60"
           transform="translate(697.7627,80.5367)" /><g
           id="g64"
           transform="translate(750.235,126.2748)" /></g></g><flowRoot
       xml:space="preserve"
       id="flowRoot4196"
       style="font-style:normal;font-weight:normal;font-size:25px;line-height:125%;font-family:Sans;letter-spacing:0px;word-spacing:0px;fill:#000000;fill-opacity:1;stroke:none;stroke-width:1px;stroke-linecap:butt;stroke-linejoin:miter;stroke-opacity:1"
       transform="matrix(0.8,0,0,-0.8,-20.328809,317.41181)"
       inkscape:export-xdpi="51.923077"
       inkscape:export-ydpi="51.923077"><flowRegion
         id="flowRegion4198"><rect
           id="rect4200"
           width="1049.6353"
           height="228.83043"
           x="223.85587"
           y="208.50211" /></flowRegion><flowPara
         id="flowPara4202"
         style="font-size:155px"><flowSpan
           style="fill:#f78044;fill-opacity:1"
           id="flowSpan4204">S</flowSpan><flowSpan
           style="fill:#f05a49;fill-opacity:1"
           id="flowSpan4220">y</flowSpan><flowSpan
           style="fill:#1e8bc3;fill-opacity:1"
           id="flowSpan4260">s</flowSpan><flowSpan
           style="fill:#ff9f00;fill-opacity:1"
           id="flowSpan4264">t</flowSpan><flowSpan
           id="flowSpan4270"
           style="fill:#f78044;fill-opacity:1">e</flowSpan><flowSpan
           style="fill:#f05a49;fill-opacity:1"
           id="flowSpan4230">m</flowSpan><flowSpan
           style="fill:#1e8bc3;fill-opacity:1"
           id="flowSpan4262"> XVI</flowSpan></flowPara></flowRoot></g></svg>